<svg xmlns:xlink="http://www.w3.org/1999/xlink" xmlns="http://www.w3.org/2000/svg" version="1.1" viewBox="0 0 1029 1261"
    height="1261px" width="1029px">
    <title>编组 29备份 5</title>
    <defs>
        <linearGradient id="linearGradient-1" y2="50%" x2="100%" y1="50%" x1="0%">
            <stop offset="0%" stop-color="#252424"></stop>
            <stop offset="100%" stop-color="#181818"></stop>
        </linearGradient>
        <linearGradient id="linearGradient-2" y2="50%" x2="100%" y1="50%" x1="1.61994987%">
            <stop offset="0%" stop-color="#A5A5A5"></stop>
            <stop offset="100%" stop-color="#7B7A7A"></stop>
        </linearGradient>
        <linearGradient id="linearGradient-3" y2="50%" x2="100%" y1="50%" x1="0%">
            <stop offset="0%" stop-color="#252424"></stop>
            <stop offset="100%" stop-color="#181818"></stop>
        </linearGradient>
    </defs>
    <g fill-rule="evenodd" fill="none" stroke-width="1" stroke="none" id="页面-1">
        <g transform="translate(-323.000000, -254.000000)" id="Apple-TV">
            <g transform="translate(323.500000, 254.318366)" id="编组-29备份-5">
                <g transform="translate(0.000000, 348.978816)" id="编组-8备份-7">
                    <g transform="translate(370.902934, 809.902126)" id="编组-24">
                        <g transform="translate(0.000000, 24.756834)" id="编组-23">
                            <path fill="url(#linearGradient-1)" id="形状结合"
                                d="M0,12.3909582 L84.5663862,14.7877697 L84.5664991,57.7890566 C84.7442999,58.4291572 84.8356313,59.0799067 84.8356313,59.7393284 C84.8356313,60.3987501 84.7442999,61.0494996 84.5664991,61.6896002 L84.5663862,66.3192177 L81.7087341,66.2388838 C75.4036899,72.5103806 60.2474131,76.9292892 42.5524382,76.9292892 C22.7878476,76.9292892 6.19053945,71.416254 1.55716532,63.9664058 L0,63.9224062 L0,12.3909582 Z">
                            </path>
                            <ellipse ry="17.1899608" rx="42.2831931" cy="17.1899608" cx="42.5524382" fill="#000000"
                                id="形状结合"></ellipse>
                        </g>
                        <g transform="translate(29.775475, 0.000000)" id="编组-22">
                            <path fill="url(#linearGradient-2)" id="形状结合备份"
                                d="M0,7.07338101 L28.1887954,8.80242971 L28.1887954,45.9769766 L27.430273,45.9299727 C25.5311109,48.0149513 20.2777518,49.5136671 14.0943977,49.5136671 C6.31027679,49.5136671 0,47.1385217 0,44.2086313 L0.001,44.247381 L0,7.07338101 Z">
                            </path>
                            <ellipse ry="5.39282595" rx="14.0943977" cy="5.39282595" cx="14.0943977" fill="#585858"
                                id="形状结合备份-2"></ellipse>
                        </g>
                    </g>
                    <g transform="translate(25.762074, 648.117347)" id="编组-24备份-4">
                        <g transform="translate(0.000000, 24.756834)" id="编组-23">
                            <path fill="url(#linearGradient-1)" id="形状结合"
                                d="M0,12.3909582 L84.5663862,14.7877697 L84.5664991,57.7890566 C84.7442999,58.4291572 84.8356313,59.0799067 84.8356313,59.7393284 C84.8356313,60.3987501 84.7442999,61.0494996 84.5664991,61.6896002 L84.5663862,66.3192177 L81.7087341,66.2388838 C75.4036899,72.5103806 60.2474131,76.9292892 42.5524382,76.9292892 C22.7878476,76.9292892 6.19053945,71.416254 1.55716532,63.9664058 L0,63.9224062 L0,12.3909582 Z">
                            </path>
                            <ellipse ry="17.1899608" rx="42.2831931" cy="17.1899608" cx="42.5524382" fill="#000000"
                                id="形状结合"></ellipse>
                        </g>
                        <g transform="translate(29.775475, 0.000000)" id="编组-22">
                            <path fill="url(#linearGradient-2)" id="形状结合备份"
                                d="M0,7.07338101 L28.1887954,8.80242971 L28.1887954,45.9769766 L27.430273,45.9299727 C25.5311109,48.0149513 20.2777518,49.5136671 14.0943977,49.5136671 C6.31027679,49.5136671 0,47.1385217 0,44.2086313 L0.001,44.247381 L0,7.07338101 Z">
                            </path>
                            <ellipse ry="5.39282595" rx="14.0943977" cy="5.39282595" cx="14.0943977" fill="#585858"
                                id="形状结合备份-2"></ellipse>
                        </g>
                    </g>
                    <g transform="translate(790.211266, 557.919198)" id="编组-23">
                        <path fill="url(#linearGradient-3)" id="形状结合"
                            d="M0,14.146762 L84.5663862,18.8623494 L84.5664991,111.717316 C84.7442999,112.357417 84.8356313,113.008166 84.8356313,113.667588 C84.8356313,114.32701 84.7442999,114.977759 84.5664991,115.61786 L84.5663862,120.247477 L81.783746,120.092022 C75.5245378,126.403324 60.3179817,130.857549 42.5524382,130.857549 C20.7740416,130.857549 2.8412348,124.163838 0.522802694,115.560941 L0,115.53189 L0,14.146762 Z">
                        </path>
                        <ellipse ry="17.1899608" rx="42.2831931" cy="17.1899608" cx="42.5524382" fill="#000000"
                            id="形状结合"></ellipse>
                    </g>
                    <g transform="translate(469.563718, 391.694744)" id="编组-24备份-3">
                        <g transform="translate(0.000000, 24.756834)" id="编组-23">
                            <path fill="url(#linearGradient-3)" id="形状结合"
                                d="M0,14.146762 L84.5663862,18.8623494 L84.5664991,111.717316 C84.7442999,112.357417 84.8356313,113.008166 84.8356313,113.667588 C84.8356313,114.32701 84.7442999,114.977759 84.5664991,115.61786 L84.5663862,120.247477 L81.783746,120.092022 C75.5245378,126.403324 60.3179817,130.857549 42.5524382,130.857549 C20.7740416,130.857549 2.8412348,124.163838 0.522802694,115.560941 L0,115.53189 L0,14.146762 Z">
                            </path>
                            <ellipse ry="17.1899608" rx="42.2831931" cy="17.1899608" cx="42.5524382" fill="#000000"
                                id="形状结合"></ellipse>
                        </g>
                        <g transform="translate(29.775475, 0.000000)" id="编组-22">
                            <path fill="url(#linearGradient-2)" id="形状结合备份"
                                d="M0,7.07338101 L28.1887954,8.80242971 L28.1887954,45.9769766 L27.430273,45.9299727 C25.5311109,48.0149513 20.2777518,49.5136671 14.0943977,49.5136671 C6.31027679,49.5136671 0,47.1385217 0,44.2086313 L0.001,44.247381 L0,7.07338101 Z">
                            </path>
                            <ellipse ry="5.39282595" rx="14.0943977" cy="5.39282595" cx="14.0943977" fill="#585858"
                                id="形状结合备份-2"></ellipse>
                        </g>
                    </g>
                    <g transform="translate(0.000000, -0.000000)" id="编组-28">
                        <polygon
                            points="457.445974 415.448261 888.87205 617.328074 437.851324 864.896409 -1.57895395e-12 664.202817"
                            fill="#C0C0C0" id="矩形备份-52"></polygon>
                        <path fill="#D8D8D8" id="形状结合"
                            d="M888.87205,205.128049 L888.87205,617.328074 L437.851324,864.896409 L435.87467,458.590869 L888.87205,205.128049 Z M843.010922,265.370932 L481.735798,467.512966 L483.312221,739.939615 L843.010922,542.498559 L843.010922,265.370932 Z">
                        </path>
                        <path fill="#E8E6E6" id="形状结合"
                            d="M2.1543729,253.839289 L441.267496,458.590869 L439.613123,866.664754 L0.5,663.702817 L2.1543729,253.839289 Z M76.910361,389.426033 L43.8412857,410.92117 L42.7447094,639.698421 L68.4637198,678.565406 L374.565017,820.852108 L407.154714,800.492296 L408.217355,579.944423 L377.09292,530.211195 L76.910361,389.426033 Z">
                        </path>
                        <polygon points="4.06185783 258.16208 444.791096 0 888 206.202817 437.464587 465.037177"
                            fill="#F7F7F7" id="路径-16备份-2"></polygon>
                        <polygon
                            points="3.06185783 246.376428 68.1625057 204.128049 510.374234 414.448261 436.464587 453.251525"
                            fill="#2A7B5A" id="路径-16备份-2"></polygon>
                        <polygon
                            points="3.06185783 246.376428 3.44859435 258.056309 434.87467 462.983695 436.464587 453.251525"
                            fill="#286F52" id="路径-16备份-2"></polygon>
                        <polygon
                            points="434.87467 462.983695 510.374234 425.233913 510.374234 414.448261 434.87467 452.198043"
                            fill="#1D5940" id="路径-16备份-2"></polygon>
                    </g>
                </g>
                <g transform="translate(212.941487, 0.000000)" id="编组-21备份">
                    <g transform="translate(627.546483, 261.292080)" id="编组-18备份">
                        <polygon
                            points="13.3036357 0.781625618 25.8247046 7.03463056 25.8247046 301.998253 13.3036357 295.745248"
                            transform="translate(19.564170, 151.389939) scale(-1, 1) translate(-19.564170, -151.389939)"
                            fill="#DBDBDB" id="矩形"></polygon>
                        <polygon points="0 7.03463056 13.3036357 2.28413188e-13 13.3036357 294.963623 0 301.998253"
                            transform="translate(6.651818, 150.999127) scale(-1, 1) translate(-6.651818, -150.999127)"
                            fill="#BAB9B9" id="矩形备份-17"></polygon>
                    </g>
                    <g transform="translate(217.691711, 77.935997)" id="编组-18">
                        <polygon
                            points="13.3036357 0.781625618 25.8247046 7.03463056 25.8247046 301.998253 13.3036357 295.745248"
                            transform="translate(19.564170, 151.389939) scale(-1, 1) translate(-19.564170, -151.389939)"
                            fill="#DBDBDB" id="矩形"></polygon>
                        <polygon points="0 7.03463056 13.3036357 2.28413188e-13 13.3036357 294.963623 0 301.998253"
                            transform="translate(6.651818, 150.999127) scale(-1, 1) translate(-6.651818, -150.999127)"
                            fill="#BAB9B9" id="矩形备份-17"></polygon>
                    </g>
                    <g id="编组-27">
                        <polygon
                            points="28.7914489 158.085866 589.645348 422.334337 589.645348 435.464695 28.7914489 171.216223"
                            fill="#CCC6C6" id="矩形备份-22"></polygon>
                        <polygon
                            points="181.444232 107.761209 795.050259 196.485469 636.315855 360.874521 20.0701119 273.805835"
                            transform="translate(407.560185, 234.317865) rotate(17.000000) translate(-407.560185, -234.317865)"
                            fill="#FFFFFF" id="矩形"></polygon>
                        <polygon
                            points="766.022311 282.53901 770.205189 295.103475 612.500244 461.742621 607.770115 446.271066"
                            transform="translate(688.987652, 372.140816) rotate(17.000000) translate(-688.987652, -372.140816)"
                            fill="#D8D8D8" id="矩形备份-51"></polygon>
                    </g>
                </g>
                <g fill="#000000" transform="translate(58.376854, 667.356211)" id="编组-30">
                    <ellipse ry="10.7856519" rx="5.39282595" cy="16.1784778" cx="5.39282595" id="椭圆形"></ellipse>
                    <path id="椭圆形备份-7"
                        d="M16.1784778,21.5713038 C19.1568534,21.5713038 21.5713038,16.742403 21.5713038,10.7856519 C21.5713038,4.82890084 19.1568534,0 16.1784778,0 C13.2001023,0 10.7856519,4.82890084 10.7856519,10.7856519 C10.7856519,16.742403 13.2001023,21.5713038 16.1784778,21.5713038 Z">
                    </path>
                    <polygon points="5.39282595 5.39282595 16.1784778 0 16.1784778 21.5713038 5.39282595 26.9641297"
                        id="矩形"></polygon>
                </g>
                <g fill="#000000" transform="translate(79.948158, 678.141863)" id="编组-30备份">
                    <ellipse ry="10.7856519" rx="5.39282595" cy="16.1784778" cx="5.39282595" id="椭圆形"></ellipse>
                    <path id="椭圆形备份-7"
                        d="M16.1784778,21.5713038 C19.1568534,21.5713038 21.5713038,16.742403 21.5713038,10.7856519 C21.5713038,4.82890084 19.1568534,0 16.1784778,0 C13.2001023,0 10.7856519,4.82890084 10.7856519,10.7856519 C10.7856519,16.742403 13.2001023,21.5713038 16.1784778,21.5713038 Z">
                    </path>
                    <polygon points="5.39282595 5.39282595 16.1784778 0 16.1784778 21.5713038 5.39282595 26.9641297"
                        id="矩形"></polygon>
                </g>
                <g fill="#000000" transform="translate(123.090765, 699.713166)" id="编组-30备份-3">
                    <ellipse ry="10.7856519" rx="5.39282595" cy="16.1784778" cx="5.39282595" id="椭圆形"></ellipse>
                    <path id="椭圆形备份-7"
                        d="M16.1784778,21.5713038 C19.1568534,21.5713038 21.5713038,16.742403 21.5713038,10.7856519 C21.5713038,4.82890084 19.1568534,0 16.1784778,0 C13.2001023,0 10.7856519,4.82890084 10.7856519,10.7856519 C10.7856519,16.742403 13.2001023,21.5713038 16.1784778,21.5713038 Z">
                    </path>
                    <polygon points="5.39282595 5.39282595 16.1784778 0 16.1784778 21.5713038 5.39282595 26.9641297"
                        id="矩形"></polygon>
                </g>
                <g fill="#000000" transform="translate(101.519461, 688.927514)" id="编组-30备份-2">
                    <ellipse ry="10.7856519" rx="5.39282595" cy="16.1784778" cx="5.39282595" id="椭圆形"></ellipse>
                    <path id="椭圆形备份-7"
                        d="M16.1784778,21.5713038 C19.1568534,21.5713038 21.5713038,16.742403 21.5713038,10.7856519 C21.5713038,4.82890084 19.1568534,0 16.1784778,0 C13.2001023,0 10.7856519,4.82890084 10.7856519,10.7856519 C10.7856519,16.742403 13.2001023,21.5713038 16.1784778,21.5713038 Z">
                    </path>
                    <polygon points="5.39282595 5.39282595 16.1784778 0 16.1784778 21.5713038 5.39282595 26.9641297"
                        id="矩形"></polygon>
                </g>
                <g fill="#000000" transform="translate(144.662069, 710.498818)" id="编组-30备份-4">
                    <ellipse ry="10.7856519" rx="5.39282595" cy="16.1784778" cx="5.39282595" id="椭圆形"></ellipse>
                    <path id="椭圆形备份-7"
                        d="M16.1784778,21.5713038 C19.1568534,21.5713038 21.5713038,16.742403 21.5713038,10.7856519 C21.5713038,4.82890084 19.1568534,0 16.1784778,0 C13.2001023,0 10.7856519,4.82890084 10.7856519,10.7856519 C10.7856519,16.742403 13.2001023,21.5713038 16.1784778,21.5713038 Z">
                    </path>
                    <polygon points="5.39282595 5.39282595 16.1784778 0 16.1784778 21.5713038 5.39282595 26.9641297"
                        id="矩形"></polygon>
                </g>
                <g fill="#000000" transform="translate(338.803803, 796.784033)" id="编组-30备份-5">
                    <ellipse ry="20.2230973" rx="8.08923892" cy="28.3123362" cx="8.08923892" id="椭圆形"></ellipse>
                    <path id="椭圆形备份-7"
                        d="M24.2677168,40.4461946 C28.7352801,40.4461946 32.3569557,31.3920055 32.3569557,20.2230973 C32.3569557,9.05418907 28.7352801,0 24.2677168,0 C19.8001535,0 16.1784778,9.05418907 16.1784778,20.2230973 C16.1784778,31.3920055 19.8001535,40.4461946 24.2677168,40.4461946 Z">
                    </path>
                    <polygon points="8.08923892 9.70708671 24.2677168 0 24.2677168 38.8283468 8.08923892 48.5354335"
                        id="矩形"></polygon>
                </g>
                <g transform="translate(198.590328, 246.715787)" id="编组-13">
                    <polygon points="0 261.099735 298.076124 410.299584 298.076124 447.599546 0 298.399698"
                        fill="#444644" id="矩形备份-41"></polygon>
                    <polygon points="8.51646068 251.774745 306.592585 400.974594 298.076124 410.299584 0 261.099735"
                        fill="#696969" id="矩形备份-42"></polygon>
                    <polygon
                        points="298.076124 410.299584 307.391003 400.974594 307.391003 438.274556 298.076124 447.599546"
                        fill="#2B2A2A" id="矩形"></polygon>
                    <polygon
                        points="18.6297577 5.0038074e-10 298.076124 137.296522 298.076124 398.396257 18.6297577 261.099735"
                        fill="#494A49" id="矩形"></polygon>
                </g>
            </g>
        </g>
    </g>
</svg>