<?xml version="1.0" standalone="no"?><!DOCTYPE svg PUBLIC "-//W3C//DTD SVG 1.1//EN" "http://www.w3.org/Graphics/SVG/1.1/DTD/svg11.dtd"><svg height="1024" legacy-metrics="false" node-id="1" sillyvg="true" template-height="1024" template-width="1468" version="1.1" viewBox="0 0 1468 1024" width="1468" xmlns="http://www.w3.org/2000/svg" xmlns:xlink="http://www.w3.org/1999/xlink"><defs node-id="33"><clipPath id="clip0_1608_18796" node-id="30"><path d="M 0.00 0.00 L 1467.73 0.00 L 1467.73 1024.00 L 0.00 1024.00 Z" fill="#000000" fill-rule="nonzero" node-id="36" stroke="none" target-height="1024" target-width="1467.73" target-x="0" target-y="0"></path></clipPath></defs><g clip-path="url(#clip0_1608_18796)" id="sillyvg_g_0" node-id="40"><path d="M 1422.21 0.00 L 716.80 0.00 C 697.95 0.00 682.67 15.28 682.67 34.13 L 682.67 643.50 C 682.67 662.36 697.95 677.64 716.80 677.64 L 1422.21 677.64 C 1441.06 677.64 1456.34 662.36 1456.34 643.50 L 1456.34 34.13 C 1456.34 15.28 1441.06 0.00 1422.21 0.00 Z" fill="#fbfbfb" fill-rule="nonzero" node-id="42" stroke="none" target-height="677.637" target-width="773.673" target-x="682.667" target-y="0"></path><path d="M 1439.28 0.00 L 699.73 0.00 C 690.31 0.00 682.67 7.64 682.67 17.07 L 682.67 62.09 C 682.67 71.51 690.31 79.15 699.73 79.15 L 1439.28 79.15 C 1448.70 79.15 1456.34 71.51 1456.34 62.09 L 1456.34 17.07 C 1456.34 7.64 1448.70 0.00 1439.28 0.00 Z" fill="#ff8f7b" fill-rule="nonzero" node-id="44" stroke="none" target-height="79.1523" target-width="773.673" target-x="682.667" target-y="0"></path><path d="M 731.30 40.82 L 731.30 36.70 C 731.30 30.35 726.15 25.21 719.80 25.21 C 713.46 25.21 708.31 30.35 708.31 36.70 L 708.31 40.82 C 708.31 47.17 713.46 52.32 719.80 52.32 C 726.15 52.32 731.30 47.17 731.30 40.82 Z" fill="#ffffff" fill-rule="nonzero" node-id="46" stroke="none" target-height="27.107" target-width="22.985046" target-x="708.311" target-y="25.2083"></path><path d="M 776.10 40.82 L 776.10 36.70 C 776.10 30.35 770.96 25.21 764.61 25.21 C 758.26 25.21 753.12 30.35 753.12 36.70 L 753.12 40.82 C 753.12 47.17 758.26 52.32 764.61 52.32 C 770.96 52.32 776.10 47.17 776.10 40.82 Z" fill="#ffffff" fill-rule="nonzero" node-id="48" stroke="none" target-height="27.107" target-width="22.987" target-x="753.116" target-y="25.2083"></path><path d="M 820.94 40.82 L 820.94 36.71 C 820.94 30.36 815.79 25.21 809.44 25.21 C 803.09 25.21 797.94 30.36 797.94 36.71 L 797.94 40.82 C 797.94 47.17 803.09 52.32 809.44 52.32 C 815.79 52.32 820.94 47.17 820.94 40.82 Z" fill="#ffffff" fill-rule="nonzero" node-id="50" stroke="none" target-height="27.107" target-width="22.996033" target-x="797.943" target-y="25.2083"></path><path d="M 868.39 254.42 L 868.39 238.16 C 868.39 220.18 853.83 205.62 835.86 205.62 L 778.94 205.62 C 760.98 205.62 746.41 220.17 746.41 238.16 L 746.41 254.42 L 868.39 254.42 Z" fill="#b5d1de" fill-rule="nonzero" node-id="52" stroke="none" target-height="48.800995" target-width="121.98102" target-x="746.412" target-y="205.617"></path><path d="M 807.40 181.22 C 823.12 181.22 835.86 168.48 835.86 152.77 C 835.86 137.05 823.12 124.31 807.40 124.31 C 791.69 124.31 778.95 137.05 778.95 152.77 C 778.95 168.48 791.69 181.22 807.40 181.22 Z" fill="#b5d1de" fill-rule="nonzero" node-id="54" stroke="none" target-height="56.90599" target-width="56.906982" target-x="778.95" target-y="124.315"></path><path d="M 1324.17 155.80 L 941.83 155.80 L 941.83 173.88 L 1324.17 173.88 L 1324.17 155.80 Z" fill="#b5d1de" fill-rule="nonzero" node-id="56" stroke="none" target-height="18.071" target-width="382.34406" target-x="941.826" target-y="155.804"></path><path d="M 1128.76 291.34 L 746.42 291.34 L 746.42 309.41 L 1128.76 309.41 L 1128.76 291.34 Z" fill="#b5d1de" fill-rule="nonzero" node-id="58" stroke="none" target-height="18.070007" target-width="382.339" target-x="746.421" target-y="291.34"></path><path d="M 851.77 598.55 L 746.42 598.55 L 746.42 616.62 L 851.77 616.62 L 851.77 598.55 Z" fill="#d8e5ed" fill-rule="nonzero" node-id="60" stroke="none" target-height="18.072021" target-width="105.34601" target-x="746.421" target-y="598.55"></path><path d="M 999.54 598.55 L 894.18 598.55 L 894.18 616.62 L 999.54 616.62 L 999.54 598.55 Z" fill="#d8e5ed" fill-rule="nonzero" node-id="62" stroke="none" target-height="18.072021" target-width="105.35596" target-x="894.181" target-y="598.55"></path><path d="M 1147.30 598.55 L 1041.95 598.55 L 1041.95 616.62 L 1147.30 616.62 L 1147.30 598.55 Z" fill="#d8e5ed" fill-rule="nonzero" node-id="64" stroke="none" target-height="18.072021" target-width="105.3501" target-x="1041.95" target-y="598.55"></path><path d="M 1197.78 204.41 L 941.83 204.41 L 941.83 222.48 L 1197.78 222.48 L 1197.78 204.41 Z" fill="#b5d1de" fill-rule="nonzero" node-id="66" stroke="none" target-height="18.071991" target-width="255.95404" target-x="941.826" target-y="204.406"></path><path d="M 1387.95 339.05 L 746.42 339.05 L 746.42 567.95 L 1387.95 567.95 L 1387.95 339.05 Z" fill="#d8e5ed" fill-rule="nonzero" node-id="68" stroke="none" target-height="228.9" target-width="641.52893" target-x="746.421" target-y="339.046"></path><path d="M 1126.40 204.80 L 68.27 204.80 C 30.56 204.80 0.00 235.36 0.00 273.07 L 0.00 955.73 C 0.00 993.44 30.56 1024.00 68.27 1024.00 L 1126.40 1024.00 C 1164.10 1024.00 1194.67 993.44 1194.67 955.73 L 1194.67 273.07 C 1194.67 235.36 1164.10 204.80 1126.40 204.80 Z" fill="#ffffff" fill-rule="nonzero" node-id="70" stroke="none" target-height="819.2" target-width="1194.67" target-x="0" target-y="204.8"></path><path d="M 470.38 400.13 L 167.92 400.13 C 152.95 400.13 140.81 411.48 140.81 425.49 L 140.81 641.87 C 140.81 655.88 152.95 667.23 167.92 667.23 L 470.38 667.23 C 485.35 667.23 497.49 655.88 497.49 641.87 L 497.49 425.49 C 497.49 411.48 485.35 400.13 470.38 400.13 Z" fill="#d8e5ed" fill-rule="nonzero" node-id="72" stroke="none" target-height="267.10696" target-width="356.676" target-x="140.814" target-y="400.126"></path><path d="M 287.66 753.99 L 163.64 753.99 C 148.67 753.99 136.53 765.35 136.53 779.35 L 136.53 862.11 C 136.53 876.11 148.67 887.47 163.64 887.47 L 287.66 887.47 C 302.63 887.47 314.77 876.11 314.77 862.11 L 314.77 779.35 C 314.77 765.35 302.63 753.99 287.66 753.99 Z" fill="#d8e5ed" fill-rule="nonzero" node-id="74" stroke="none" target-height="133.47498" target-width="178.234" target-x="136.533" target-y="753.992"></path><path d="M 542.33 751.99 L 418.31 751.99 C 403.34 751.99 391.20 763.34 391.20 777.35 L 391.20 860.11 C 391.20 874.11 403.34 885.47 418.31 885.47 L 542.33 885.47 C 557.30 885.47 569.43 874.11 569.43 860.11 L 569.43 777.35 C 569.43 763.34 557.30 751.99 542.33 751.99 Z" fill="#ff8f7b" fill-rule="nonzero" node-id="76" stroke="none" target-height="133.47504" target-width="178.23297" target-x="391.2" target-y="751.99"></path><path d="M 794.85 747.98 L 670.83 747.98 C 655.86 747.98 643.73 759.34 643.73 773.34 L 643.73 856.10 C 643.73 870.11 655.86 881.46 670.83 881.46 L 794.85 881.46 C 809.82 881.46 821.96 870.11 821.96 856.10 L 821.96 773.34 C 821.96 759.34 809.82 747.98 794.85 747.98 Z" fill="#d8e5ed" fill-rule="nonzero" node-id="78" stroke="none" target-height="133.47699" target-width="178.232" target-x="643.726" target-y="747.982"></path><path d="M 1031.03 745.32 L 907.01 745.32 C 892.04 745.32 879.90 756.67 879.90 770.68 L 879.90 853.43 C 879.90 867.44 892.04 878.79 907.01 878.79 L 1031.03 878.79 C 1046.00 878.79 1058.13 867.44 1058.13 853.43 L 1058.13 770.68 C 1058.13 756.67 1046.00 745.32 1031.03 745.32 Z" fill="#ff8f7b" fill-rule="nonzero" node-id="80" stroke="none" target-height="133.47498" target-width="178.23102" target-x="879.899" target-y="745.317"></path><path d="M 985.07 389.61 L 580.60 389.61 C 575.28 389.61 570.97 393.64 570.97 398.62 C 570.97 403.59 575.28 407.62 580.60 407.62 L 985.07 407.62 C 990.39 407.62 994.70 403.59 994.70 398.62 C 994.70 393.64 990.39 389.61 985.07 389.61 Z" fill="#d8e5ed" fill-rule="nonzero" node-id="82" stroke="none" target-height="18.019012" target-width="423.73102" target-x="570.967" target-y="389.606"></path><path d="M 833.59 442.52 L 582.02 442.52 C 576.70 442.52 572.39 446.56 572.39 451.53 L 572.39 451.56 C 572.39 456.54 576.70 460.57 582.02 460.57 L 833.59 460.57 C 838.91 460.57 843.23 456.54 843.23 451.56 L 843.23 451.53 C 843.23 446.56 838.91 442.52 833.59 442.52 Z" fill="#d8e5ed" fill-rule="nonzero" node-id="84" stroke="none" target-height="18.046997" target-width="270.83295" target-x="572.392" target-y="442.523"></path><path d="M 759.46 491.49 L 583.93 491.49 C 578.61 491.49 574.29 495.53 574.29 500.50 C 574.29 505.48 578.61 509.51 583.93 509.51 L 759.46 509.51 C 764.78 509.51 769.09 505.48 769.09 500.50 C 769.09 495.53 764.78 491.49 759.46 491.49 Z" fill="#d8e5ed" fill-rule="nonzero" node-id="86" stroke="none" target-height="18.019012" target-width="194.794" target-x="574.295" target-y="491.491"></path><path d="M 331.45 341.33 L 155.91 341.33 C 150.59 341.33 146.28 345.37 146.28 350.34 C 146.28 355.32 150.59 359.35 155.91 359.35 L 331.45 359.35 C 336.77 359.35 341.08 355.32 341.08 350.34 C 341.08 345.37 336.77 341.33 331.45 341.33 Z" fill="#ff8f7b" fill-rule="nonzero" node-id="88" stroke="none" target-height="18.018982" target-width="194.79399" target-x="146.283" target-y="341.333"></path><path d="M 936.09 563.20 L 580.27 563.20 L 580.27 588.90 L 936.09 588.90 L 936.09 563.20 Z" fill="#b5d1de" fill-rule="nonzero" node-id="90" stroke="none" target-height="25.700989" target-width="355.82098" target-x="580.267" target-y="563.2"></path><path d="M 838.14 615.70 L 580.27 615.70 L 580.27 641.40 L 838.14 641.40 L 838.14 615.70 Z" fill="#b5d1de" fill-rule="nonzero" node-id="92" stroke="none" target-height="25.700989" target-width="257.87" target-x="580.267" target-y="615.695"></path></g></svg>